<svg xmlns="http://www.w3.org/2000/svg" xmlns:svg="http://www.w3.org/2000/svg" id="Capa_1" width="512" height="512" x="0" y="0" version="1.1" viewBox="0 0 512 512" xml:space="preserve"><metadata id="metadata3385"/><g id="layer3" transform="translate(0,-280)" style="display:inline"><circle style="opacity:1;fill:#0171bb;fill-opacity:1;fill-rule:nonzero;stroke:none;stroke-width:4;stroke-miterlimit:4;stroke-dasharray:none;stroke-opacity:1" id="path4286" cx="256.788" cy="537.441" r="250"/></g><g id="layer4" style="display:inline" transform="translate(0,-280)"><circle style="opacity:1;fill:#004b82;fill-opacity:1;fill-rule:nonzero;stroke:none;stroke-width:5;stroke-miterlimit:4;stroke-dasharray:none;stroke-opacity:1" id="path4393" cx="255.536" cy="533.756" r="185.136"/><path style="fill:#004b82;fill-opacity:1;fill-rule:evenodd;stroke:none;stroke-width:1px;stroke-linecap:butt;stroke-linejoin:miter;stroke-opacity:1" id="path4397" d="m 87.80481,449.67107 333.0473,168.99852 -96.87364,160.51324 C 91.88615,825.08129 11.90869,631.39751 11.43728,574.82897 Z"/></g><g id="layer2" style="display:inline" transform="translate(0,-280)"><path style="opacity:1;fill:none;fill-opacity:1;fill-rule:nonzero;stroke:#fff;stroke-width:45;stroke-miterlimit:4;stroke-dasharray:none;stroke-opacity:1" id="path4307" d="M 392.85391,621.79725 A 164.15593,164.15593 0 0 1 186.19996,680.35848 164.15593,164.15593 0 0 1 98.497224,484.28834 164.15593,164.15593 0 0 1 279.89837,369.2714 164.15593,164.15593 0 0 1 419.83308,532.22399"/><path style="fill:#fff;fill-rule:evenodd;stroke:none;stroke-width:1px;stroke-linecap:butt;stroke-linejoin:miter;stroke-opacity:1" id="path4317" d="m 369.24024,529.2613 52.26457,89.16055 48.0834,-89.16055 z"/><path style="fill:#fff;fill-opacity:1;fill-rule:evenodd;stroke:none;stroke-width:1px;stroke-linecap:butt;stroke-linejoin:miter;stroke-opacity:1" id="path4348" d="m 411.65053,634.16121 -28.0754,-44.18448 -9.52444,19.46287 z"/></g><g id="layer1" style="display:inline" transform="translate(0,-280)"><g id="g3" transform="translate(358.94885,245.63935)" style="fill:#fff;fill-opacity:.941176;stroke:#fff;stroke-width:5;stroke-miterlimit:4;stroke-dasharray:none;stroke-opacity:1"><g id="g5" style="fill:#fff;fill-opacity:.941176;stroke:#fff;stroke-width:5;stroke-miterlimit:4;stroke-dasharray:none;stroke-opacity:1"><path id="path7" d="m -174.15384,386.14314 h 149.574394 c 4.183017,0 7.605485,-3.42247 7.605485,-7.60549 V 249.37146 c 0,-2.15503 -0.887157,-4.18301 -2.408254,-5.57751 l -58.815902,-54.63288 c -1.39404,-1.26743 -3.295411,-2.02798 -5.196783,-2.02798 h -90.75894 c -4.18302,0 -7.60548,3.42247 -7.60548,7.60549 v 183.79907 c 0,4.18302 3.42246,7.60549 7.60548,7.60549 z M -32.184931,252.66687 v 0.38028 H -84.155448 V 204.37204 Z M -166.54835,202.34406 h 67.181935 v 58.30857 c 0,4.18302 3.422465,7.60549 7.605481,7.60549 h 59.57645 V 370.93217 H -166.54835 Z" style="fill:#fff;fill-opacity:.941176;stroke:#fff;stroke-width:5;stroke-miterlimit:4;stroke-dasharray:none;stroke-opacity:1"/></g></g></g></svg>