<svg xmlns="http://www.w3.org/2000/svg" xmlns:svg="http://www.w3.org/2000/svg" id="svg3760" width="50mm" height="50mm" version="1.1" viewBox="0 0 50 50"><metadata id="metadata3757"/><g id="layer1" transform="translate(0,-247)"><rect id="rect3762" width="3.969" height="36.888" x="7.878" y="253.628" style="fill:#0171bb;fill-opacity:1;stroke-width:.120997"/><rect id="rect3762-9" width="3.969" height="35.384" x="38.489" y="253.657" style="fill:#0171bb;fill-opacity:1;stroke-width:.118503"/><rect id="rect3762-93" width="3.969" height="34.548" x="253.616" y="-42.445" style="fill:#0171bb;fill-opacity:1;stroke-width:.117097" transform="rotate(90)"/><rect id="rect3762-93-7" width="3.969" height="34.578" x="286.581" y="-42.457" style="fill:#0171bb;fill-opacity:1;stroke-width:.117146" transform="rotate(90)"/><g id="g232" transform="translate(-0.11779088,-0.12019703)"><rect id="rect3762-93-70" width="1.984" height="16.243" x="261.496" y="-35.53" style="fill:#004b82;fill-opacity:1;stroke-width:.056774" transform="rotate(90)"/><rect id="rect3762-93-70-0" width="1.984" height="1.971" x="261.442" y="-16.985" style="fill:#004b82;fill-opacity:1;stroke-width:.0197755" transform="rotate(90)"/></g><g id="g236" transform="translate(-0.06206197,-0.2562312)"><rect id="rect3762-93-70-8" width="1.984" height="16.243" x="266.314" y="-35.475" style="fill:#004b82;fill-opacity:1;stroke-width:.056774" transform="rotate(90)"/><rect id="rect3762-93-70-0-3" width="1.984" height="1.971" x="266.26" y="-16.929" style="fill:#004b82;fill-opacity:1;stroke-width:.0197755" transform="rotate(90)"/></g><g id="g246" transform="translate(-0.28862447,-0.47390316)"><rect id="rect3762-93-70-4" width="1.984" height="16.243" x="271.213" y="-35.701" style="fill:#004b82;fill-opacity:1;stroke-width:.056774" transform="rotate(90)"/><rect id="rect3762-93-70-0-7" width="1.984" height="1.971" x="271.159" y="-17.155" style="fill:#004b82;fill-opacity:1;stroke-width:.0197755" transform="rotate(90)"/></g><g id="g250" transform="translate(-0.27479237,-0.20701256)"><rect id="rect3762-93-70-6" width="1.984" height="16.243" x="275.628" y="-35.687" style="fill:#004b82;fill-opacity:1;stroke-width:.056774" transform="rotate(90)"/><rect id="rect3762-93-70-0-1" width="1.984" height="1.971" x="275.574" y="-17.142" style="fill:#004b82;fill-opacity:1;stroke-width:.0197755" transform="rotate(90)"/></g><g id="g254" transform="translate(-0.07933778)"><rect id="rect3762-93-70-05" width="1.984" height="16.243" x="280.103" y="-35.492" style="fill:#004b82;fill-opacity:1;stroke-width:.056774" transform="rotate(90)"/><rect id="rect3762-93-70-0-8" width="1.984" height="1.971" x="280.049" y="-16.946" style="fill:#004b82;fill-opacity:1;stroke-width:.0197755" transform="rotate(90)"/></g></g></svg>