<svg xmlns="http://www.w3.org/2000/svg" xmlns:svg="http://www.w3.org/2000/svg" id="Capa_1" x="0" y="0" version="1.1" viewBox="0 0 27.964 27.964" style="enable-background:new 0 0 27.964 27.964" xml:space="preserve"><metadata id="metadata44"/><g id="g3" style="fill:#d32f2f;fill-opacity:1;stroke:#d32f2f;stroke-opacity:1" transform="matrix(0.96727092,0,0,0.96727092,0.4279787,0.48722445)"><g id="c127_X" style="fill:#d32f2f;fill-opacity:1;stroke:#d32f2f;stroke-opacity:1"><path style="fill:#d32f2f;fill-opacity:1;stroke:#d32f2f;stroke-opacity:1" id="path6" d="M 13.981,0 C 6.261,0 0,6.259 0,13.979 c 0,7.724 6.261,13.984 13.981,13.984 7.725,0 13.983,-6.261 13.983,-13.984 C 27.965,6.259 21.706,0 13.981,0 Z m 0,26.531 c -6.93,0 -12.55,-5.62 -12.55,-12.553 0,-6.93 5.62,-12.548 12.55,-12.548 6.931,0 12.553,5.618 12.553,12.548 0,6.933 -5.622,12.553 -12.553,12.553 z"/><path style="fill:#d32f2f;fill-opacity:1;stroke:#d32f2f;stroke-opacity:1" id="path8" d="M 19.994,10.197 17.767,7.97 c 0,0 -3.553,3.783 -3.785,3.783 -0.231,0 -3.785,-3.783 -3.785,-3.783 l -2.228,2.228 c 0,0 3.785,3.472 3.785,3.787 0,0.312 -3.785,3.782 -3.785,3.782 l 2.228,2.226 c 0,0 3.525,-3.784 3.785,-3.784 0.262,0 3.785,3.784 3.785,3.784 l 2.228,-2.226 c 0,0 -3.786,-3.528 -3.786,-3.782 -0.001,-0.263 3.785,-3.788 3.785,-3.788 z"/></g></g></svg>